# xmcd CD database file
#
# Track frame offsets:
#	150
#	22047
#	37559
#	59234
#	73487
#	85441
#	96182
#	114834
#	121957
#	129702
#	142865
#	155802
#	174036
#	187332
#	205839
#	221628
#	243646
#
# Disc length: 3338 seconds
#
# Revision: 0
# Processed by: cddbd v1.5.2PL0 Copyright (c) Steve Scherf et al.
# Submitted via: CDex 1.51
#
DISCID=000d0811
DTITLE=Tumbleweeds - Cool Evenin' Breeze
DYEAR=2004
DGENRE=Country
TTITLE0=COOL EVENIN' BREEZE
TTITLE1=COLORADO TRAIL
TTITLE2=LOVE IS
TTITLE3=GHOST RIDERS IN THE SKY
TTITLE4=TUMBLING TUMBLEWEEDS
TTITLE5=SO LONG TO THE RED RIVER VALLEY
TTITLE6=GREAT AMERICAN COWBOY
TTITLE7=UGLY EARL
TTITLE8=I WANNA BE A DOG
TTITLE9=EMPTY SADDLES
TTITLE10=THE HABIT
TTITLE11=GRANDPA (Tell Me 'bout The Good Old Days)
TTITLE12=THE BARN DANCE
TTITLE13=THE GIFT
TTITLE14=HERE'S HOPIN'
TTITLE15=EVEN COWBOYS (Need To Take Time To Love)
TTITLE16=HAPPY TRAILS
EXTD=YEAR: 2004
EXTT0=
EXTT1=
EXTT2=
EXTT3=
EXTT4=
EXTT5=
EXTT6=
EXTT7=
EXTT8=
EXTT9=
EXTT10=
EXTT11=
EXTT12=
EXTT13=
EXTT14=
EXTT15=
EXTT16=
PLAYORDER=
